<svg width="17" height="16" viewBox="0 0 17 16" fill="none" xmlns="http://www.w3.org/2000/svg">
<path d="M16.0036 14.4008C16.0036 15.2805 15.2853 16 14.4032 16H1.60155C0.721894 16 0 15.2805 0 14.4008V1.59916C0 0.719504 0.721894 0 1.60155 0H14.402C15.2841 0 16.0024 0.719504 16.0024 1.59916V14.4008" fill="#004289"/>
<path d="M2.80029 8.00056C2.80029 5.1345 5.13569 2.80029 8.00176 2.80029C10.8678 2.80029 13.202 5.1345 13.202 8.00056C13.202 10.8666 10.8702 13.1996 8.00176 13.1996C5.1333 13.1996 2.80029 10.8678 2.80029 8.00056Z" fill="white"/>
<path d="M3.60352 8.00064C3.60352 5.5756 5.57677 3.59875 8.00301 3.59875C10.4292 3.59875 12.4037 5.5744 12.4037 8.00064C12.4037 10.4269 10.4304 12.4001 8.00301 12.4001C5.57558 12.4001 3.60352 10.4269 3.60352 8.00064Z" fill="#DC0814"/>
</svg>
