<svg width="24" height="25" viewBox="0 0 24 25" fill="none" xmlns="http://www.w3.org/2000/svg">
<path d="M5.92971 19.783L5.92972 19.783L5.95149 19.7775L5.95151 19.7775L8.58384 19.1194C8.59896 19.1156 8.61396 19.1119 8.62885 19.1082C8.85159 19.0528 9.04877 19.0037 9.2278 18.9023C9.40683 18.801 9.55035 18.6571 9.71248 18.4947C9.72332 18.4838 9.73425 18.4729 9.74527 18.4618L16.9393 11.2678L16.9393 11.2678L16.9626 11.2445C17.2761 10.9311 17.5461 10.6611 17.7333 10.4157C17.9339 10.1528 18.0858 9.86038 18.0858 9.5C18.0858 9.13961 17.9339 8.84719 17.7333 8.58427C17.5461 8.33894 17.276 8.0689 16.9626 7.7555L16.9393 7.73223L16.5858 8.08579L16.9393 7.73223L16.7678 7.56066L16.7445 7.53738C16.4311 7.22395 16.1611 6.95388 15.9157 6.7667C15.6528 6.5661 15.3604 6.41421 15 6.41421C14.6396 6.41421 14.3472 6.5661 14.0843 6.7667C13.8389 6.95388 13.5689 7.22395 13.2555 7.53739L13.2322 7.56066L6.03816 14.7547C6.02714 14.7658 6.01619 14.7767 6.00533 14.7875C5.84286 14.9496 5.69903 15.0932 5.59766 15.2722C5.4963 15.4512 5.44723 15.6484 5.39179 15.8711C5.38809 15.886 5.38435 15.901 5.38057 15.9162L4.71704 18.5703C4.71483 18.5791 4.7126 18.588 4.71036 18.597C4.67112 18.7537 4.62921 18.921 4.61546 19.0615C4.60032 19.2163 4.60385 19.4773 4.81326 19.6867C5.02267 19.8961 5.28373 19.8997 5.43846 19.8845C5.57899 19.8708 5.74633 19.8289 5.90301 19.7896C5.91195 19.7874 5.92085 19.7852 5.92971 19.783Z" stroke="#585757"/>
<path d="M12.5 8L15.5 6L18.5 9L16.5 12L12.5 8Z" fill="#585757"/>
</svg>
